<svg width="100" height="100" viewBox="0 0 100 100" fill="none" xmlns="http://www.w3.org/2000/svg">
<path d="M90.5623 20.752C104.692 40.2968 102.956 67.7548 85.3557 85.3555C67.755 102.956 40.2976 104.691 20.7528 90.5615L29.3859 81.9284C44.1072 91.4539 63.9712 89.7695 76.8704 76.8703C89.7697 63.971 91.4548 44.1063 81.9293 29.385L90.5623 20.752Z" fill="#165027"/>
<path d="M71.4642 18.6368C56.6656 8.48464 36.2792 9.98126 23.1303 23.1301C9.98145 36.279 8.48559 56.6648 18.6377 71.4634L10.0398 80.0612C-4.73574 60.4711 -3.20131 32.4912 14.645 14.6449C32.4913 -3.20146 60.4713 -4.7359 80.0614 10.0397L71.4642 18.6368Z" fill="#F99FD2"/>
</svg>
